<svg width="46" height="44" viewBox="0 0 46 44" fill="none" xmlns="http://www.w3.org/2000/svg">
<path d="M11.5 19V39C11.5 39.663 11.2366 40.2989 10.7678 40.7678C10.2989 41.2366 9.66304 41.5 9 41.5H4C3.33696 41.5 2.70107 41.2366 2.23223 40.7678C1.76339 40.2989 1.5 39.663 1.5 39V21.5C1.5 20.837 1.76339 20.2011 2.23223 19.7322C2.70107 19.2634 3.33696 19 4 19H11.5ZM11.5 19C14.1522 19 16.6957 17.9464 18.5711 16.0711C20.4464 14.1957 21.5 11.6522 21.5 9V6.5C21.5 5.17392 22.0268 3.90215 22.9645 2.96447C23.9021 2.02678 25.1739 1.5 26.5 1.5C27.8261 1.5 29.0979 2.02678 30.0355 2.96447C30.9732 3.90215 31.5 5.17392 31.5 6.5V19H39C40.3261 19 41.5979 19.5268 42.5355 20.4645C43.4732 21.4021 44 22.6739 44 24L41.5 36.5C41.1405 38.0337 40.4584 39.3506 39.5566 40.2524C38.6548 41.1542 37.5821 41.5921 36.5 41.5H19C17.0109 41.5 15.1032 40.7098 13.6967 39.3033C12.2902 37.8968 11.5 35.9891 11.5 34" stroke="#305880" stroke-width="3" stroke-linecap="round" stroke-linejoin="round"/>
</svg>
