<svg width="26" height="26" viewBox="0 0 26 26" fill="none" xmlns="http://www.w3.org/2000/svg">
<path d="M5.71 21.5613C6.01939 20.5315 6.65246 19.629 7.51531 18.9875C8.37815 18.346 9.42481 17.9997 10.5 18H15.5C16.5766 17.9996 17.6245 18.3467 18.488 18.9897C19.3515 19.6327 19.9843 20.5372 20.2925 21.5687M1.75 13C1.75 14.4774 2.04099 15.9403 2.60636 17.3052C3.17172 18.6701 4.00039 19.9103 5.04505 20.955C6.08971 21.9996 7.3299 22.8283 8.69481 23.3936C10.0597 23.959 11.5226 24.25 13 24.25C14.4774 24.25 15.9403 23.959 17.3052 23.3936C18.6701 22.8283 19.9103 21.9996 20.955 20.955C21.9996 19.9103 22.8283 18.6701 23.3936 17.3052C23.959 15.9403 24.25 14.4774 24.25 13C24.25 11.5226 23.959 10.0597 23.3936 8.69481C22.8283 7.3299 21.9996 6.08971 20.955 5.04505C19.9103 4.00039 18.6701 3.17172 17.3052 2.60636C15.9403 2.04099 14.4774 1.75 13 1.75C11.5226 1.75 10.0597 2.04099 8.69481 2.60636C7.3299 3.17172 6.08971 4.00039 5.04505 5.04505C4.00039 6.08971 3.17172 7.3299 2.60636 8.69481C2.04099 10.0597 1.75 11.5226 1.75 13ZM9.25 10.5C9.25 11.4946 9.64509 12.4484 10.3483 13.1517C11.0516 13.8549 12.0054 14.25 13 14.25C13.9946 14.25 14.9484 13.8549 15.6517 13.1517C16.3549 12.4484 16.75 11.4946 16.75 10.5C16.75 9.50544 16.3549 8.55161 15.6517 7.84835C14.9484 7.14509 13.9946 6.75 13 6.75C12.0054 6.75 11.0516 7.14509 10.3483 7.84835C9.64509 8.55161 9.25 9.50544 9.25 10.5Z" stroke="#305880" stroke-width="2" stroke-linecap="round" stroke-linejoin="round"/>
</svg>
