<svg width="11" height="11" viewBox="0 0 11 11" fill="none" xmlns="http://www.w3.org/2000/svg">
<path d="M5.82879 0.214173C5.76703 0.0830278 5.63956 0 5.49999 0C5.36042 0 5.23295 0.0830278 5.17119 0.214173L3.67014 3.40118L0.313983 3.91187C0.175857 3.93289 0.0610987 4.03425 0.0179618 4.17335C-0.0251751 4.31244 0.0107918 4.46513 0.110739 4.56722L2.53936 7.04781L1.96588 10.5509C1.94229 10.695 1.99883 10.8407 2.11175 10.9266C2.22466 11.0126 2.37436 11.0239 2.4979 10.9558L5.49999 9.30199L8.5021 10.9558C8.62562 11.0239 8.77529 11.0126 8.8882 10.9266C9.00119 10.8407 9.05768 10.695 9.03411 10.5509L8.46062 7.04781L10.8893 4.56722C10.9892 4.46513 11.0252 4.31244 10.982 4.17335C10.9389 4.03425 10.8241 3.93289 10.686 3.91187L7.32983 3.40118L5.82879 0.214173Z" fill="#F7882E"/>
</svg>
