<svg width="22" height="26" viewBox="0 0 22 26" fill="none" xmlns="http://www.w3.org/2000/svg">
<path d="M3.5 19.045C4.16304 19.045 4.79893 19.3084 5.26777 19.7772C5.73661 20.2461 6 20.8819 6 21.545C6 22.208 5.73661 22.8439 5.26777 23.3127C4.79893 23.7816 4.16304 24.045 3.5 24.045C2.83696 24.045 2.20107 23.7816 1.73223 23.3127C1.26339 22.8439 1 22.208 1 21.545C1 20.8819 1.26339 20.2461 1.73223 19.7772C2.20107 19.3084 2.83696 19.045 3.5 19.045ZM3.5 19.045H17.25M3.5 19.045V1.54498H1M17.25 19.045C17.913 19.045 18.5489 19.3084 19.0178 19.7772C19.4866 20.2461 19.75 20.8819 19.75 21.545C19.75 22.208 19.4866 22.8439 19.0178 23.3127C18.5489 23.7816 17.913 24.045 17.25 24.045C16.587 24.045 15.9511 23.7816 15.4822 23.3127C15.0134 22.8439 14.75 22.208 14.75 21.545C14.75 20.8819 15.0134 20.2461 15.4822 19.7772C15.9511 19.3084 16.587 19.045 17.25 19.045ZM3.5 4.04498L21 5.29498L19.75 14.045H3.5" stroke="#305880" stroke-width="2" stroke-linecap="round" stroke-linejoin="round"/>
</svg>
