<svg width="26" height="26" viewBox="0 0 26 26" fill="none" xmlns="http://www.w3.org/2000/svg">
<path d="M9.25 10.4999C9.25 10.6657 9.31585 10.8247 9.43306 10.9419C9.55027 11.0591 9.70924 11.1249 9.875 11.1249C10.0408 11.1249 10.1997 11.0591 10.3169 10.9419C10.4342 10.8247 10.5 10.6657 10.5 10.4999V9.24994C10.5 9.08418 10.4342 8.92521 10.3169 8.808C10.1997 8.69079 10.0408 8.62494 9.875 8.62494C9.70924 8.62494 9.55027 8.69079 9.43306 8.808C9.31585 8.92521 9.25 9.08418 9.25 9.24994V10.4999ZM9.25 10.4999C9.25 12.1575 9.90848 13.7473 11.0806 14.9194C12.2527 16.0915 13.8424 16.7499 15.5 16.7499M15.5 16.7499H16.75C16.9158 16.7499 17.0747 16.6841 17.1919 16.5669C17.3092 16.4497 17.375 16.2907 17.375 16.1249C17.375 15.9592 17.3092 15.8002 17.1919 15.683C17.0747 15.5658 16.9158 15.4999 16.75 15.4999H15.5C15.3342 15.4999 15.1753 15.5658 15.0581 15.683C14.9408 15.8002 14.875 15.9592 14.875 16.1249C14.875 16.2907 14.9408 16.4497 15.0581 16.5669C15.1753 16.6841 15.3342 16.7499 15.5 16.7499ZM1.75 24.2499L3.8125 19.4999C2.23458 17.26 1.52833 14.5212 1.82631 11.7975C2.12428 9.07387 3.40598 6.55257 5.43088 4.7068C7.45579 2.86103 10.0847 1.81767 12.8242 1.77252C15.5638 1.72738 18.2256 2.68356 20.3102 4.46162C22.3948 6.23967 23.7589 8.71737 24.1465 11.4297C24.534 14.1421 23.9184 16.9027 22.4151 19.1934C20.9119 21.4841 18.6243 23.1474 15.9817 23.8713C13.3392 24.5951 10.5233 24.3298 8.0625 23.1249L1.75 24.2499Z" stroke="#305880" stroke-width="2" stroke-linecap="round" stroke-linejoin="round"/>
</svg>
